PathFileType	4	(X/Y/Z)	C:\Users\Basilio\Documents\Thesis Gigler\squatting_fais\c3dfiles\019\SLS_back_pre4\markers_experimental.trc
DataRate	CameraRate	NumFrames	NumMarkers	Units	OrigDataRate	OrigDataStartFrame	OrigNumFrames
200.000000	200.000000	4	59	mm	200.000000	174	1397
Frame#	Time	FHD			LBHD			RBHD			C7			T10			CLAV			LSHO			LUUPA			LMUPA			LDUPA			LLEP			LMEP			LRAD			LUL			LRFIN			RSHO			RUPA1			RMUPA			RDUPA			RLEP			RMEP			RRAD			RUL			RUFIN			LASI			RASI			USACR			LSACR			RSACR			LTHI1			LTHI2			LTHI3			LTHI4			LLFC			LTIB1			LTIB2			LTIB3			LTIB4			LLMAL			LMMAL			LHEE			LMT1			LMT2			LMT5			RTHI2			RTHI4			RLFC			RTIB1			RTIB2			RTIB3			RTIB4			RLMAL			RMMAL			RHEE			RMT1			RMT2			RMT5			RTHI3			RTHI			
		X1	Y1	Z1	X2	Y2	Z2	X3	Y3	Z3	X4	Y4	Z4	X5	Y5	Z5	X6	Y6	Z6	X7	Y7	Z7	X8	Y8	Z8	X9	Y9	Z9	X10	Y10	Z10	X11	Y11	Z11	X12	Y12	Z12	X13	Y13	Z13	X14	Y14	Z14	X15	Y15	Z15	X16	Y16	Z16	X17	Y17	Z17	X18	Y18	Z18	X19	Y19	Z19	X20	Y20	Z20	X21	Y21	Z21	X22	Y22	Z22	X23	Y23	Z23	X24	Y24	Z24	X25	Y25	Z25	X26	Y26	Z26	X27	Y27	Z27	X28	Y28	Z28	X29	Y29	Z29	X30	Y30	Z30	X31	Y31	Z31	X32	Y32	Z32	X33	Y33	Z33	X34	Y34	Z34	X35	Y35	Z35	X36	Y36	Z36	X37	Y37	Z37	X38	Y38	Z38	X39	Y39	Z39	X40	Y40	Z40	X41	Y41	Z41	X42	Y42	Z42	X43	Y43	Z43	X44	Y44	Z44	X45	Y45	Z45	X46	Y46	Z46	X47	Y47	Z47	X48	Y48	Z48	X49	Y49	Z49	X50	Y50	Z50	X51	Y51	Z51	X52	Y52	Z52	X53	Y53	Z53	X54	Y54	Z54	X55	Y55	Z55	X56	Y56	Z56	X57	Y57	Z57	X58	Y58	Z58	X59	Y59	Z59	

175	0.87	-257.5062866210938	1719.122192382813	-710.2973632812501	-385.932098388672	1684.544555664063	-852.460876464844	-388.6152343750001	1678.349853515625	-712.5821533203126	-410.604949951172	1502.552734375	-774.137145996094	-434.3206481933595	1210.58154296875	-776.764587402344	-277.3957214355469	1457.53173828125	-782.1696777343752	-332.0939025878907	1502.5498046875	-922.2194824218752	-206.2932281494141	1444.6044921875	-977.7695922851565	-180.3708648681641	1442.886474609375	-935.6745605468752	-140.4216003417969	1428.254760742188	-978.9154052734377	-77.37769317626955	1377.289672851563	-1003.532836914063	-88.02478027343751	1325.3994140625	-975.4905395507815	162.5799102783203	1381.151489257813	-916.6407470703127	164.7455444335938	1338.5029296875	-966.8499755859377	238.0003356933594	1395.10595703125	-920.7690429687502	-319.3327331542969	1486.810791015625	-643.7794189453126	-208.7574005126954	1376.359497070313	-555.5684814453126	-175.0651397705078	1405.784057617188	-579.6019287109376	-142.6734924316407	1361.342895507813	-556.5713500976564	-67.54947662353517	1341.771606445313	-565.7348022460939	-84.37368774414064	1294.850952148438	-593.0634765625001	174.788558959961	1363.44775390625	-632.7957763671876	182.7581329345703	1316.5498046875	-591.3677368164064	254.2943420410157	1373.800659179688	-620.9556884765626	-278.7720947265626	1011.7275390625	-909.017761230469	-252.7689819335938	1007.788330078125	-699.9348144531251	-429.8659973144532	1077.83349609375	-783.3245849609377	-436.3909606933595	1044.806518554688	-810.268249511719	-429.1695556640626	1046.30859375	-752.8425292968751	-334.7401123046876	751.9566650390626	-982.9895629882815	-293.0307922363282	677.5739135742189	-989.583923339844	-246.4093475341797	685.8427734375001	-978.8768310546877	-313.9927978515626	621.8311157226564	-975.445739746094	-313.0990905761719	524.9073486328126	-965.8945312500002	-271.0062255859376	381.8299255371094	-942.8191528320315	-336.4558715820313	344.9141235351563	-991.0083618164065	-298.3650207519532	337.4010314941407	-971.622741699219	-302.6040344238282	256.4366455078126	-939.990905761719	-383.9292602539063	136.1407623291016	-956.8652954101565	-361.6017456054688	138.5383605957032	-883.0045166015627	-445.044891357422	102.0886383056641	-904.138610839844	-246.3119201660157	53.93589782714845	-910.0239868164065	-241.4310607910157	55.98600006103517	-947.7671508789065	-292.0453186035157	43.63000488281251	-997.1882934570315	-249.3412628173829	752.3101196289064	-640.5145874023439	-275.8549804687501	675.7953491210939	-640.7194824218751	-319.5277099609376	514.9523315429689	-670.8171997070314	-292.4468383789063	333.6518859863282	-737.0659179687501	-345.3551330566407	254.3748779296876	-679.2653808593751	-314.7059631347657	252.2303619384766	-715.0381469726564	-328.8499450683594	211.964340209961	-756.3333129882814	-390.3558959960939	128.976058959961	-711.6161499023439	-375.6964721679688	134.2795104980469	-786.4741210937502	-457.2036132812501	104.7292785644532	-760.2182617187501	-257.8836059570313	55.95514297485353	-787.5249633789065	-249.2103576660157	54.58873367309572	-744.7063598632814	-292.2918395996094	49.77721786499025	-686.8494262695314	-225.0077362060547	755.2939453125001	-667.1765136718751	-288.3192138671876	804.7709960937502	-630.3848266601564	
176	0.875	-257.5130310058594	1719.120361328125	-709.9387207031251	-385.9430541992189	1684.5302734375	-852.1533203125002	-388.6628417968751	1678.333251953125	-712.2720947265626	-410.5750122070314	1502.534912109375	-773.7424316406252	-434.4144592285157	1210.615600585938	-776.4179687500002	-277.2776794433594	1457.634399414063	-781.753112792969	-333.2710571289063	1502.911987304688	-922.8204345703127	-206.0456237792969	1445.424926757813	-977.0706787109377	-180.3797912597657	1443.783569335938	-935.056579589844	-140.3173828125	1429.393920898438	-978.1997070312502	-76.84215545654298	1378.67724609375	-1002.700622558594	-87.1671600341797	1326.668823242188	-974.6759033203127	162.9364166259766	1383.6103515625	-915.7871704101565	165.48193359375	1340.717895507813	-965.9260253906252	238.0757141113282	1397.867065429688	-920.0780029296877	-319.4417724609376	1487.0947265625	-643.5266113281251	-208.2780456542969	1377.271118164063	-555.2630615234376	-174.8808746337891	1406.89697265625	-579.3811645507814	-142.3982238769532	1362.518676757813	-556.3764648437501	-67.02182006835939	1343.29443359375	-565.7170410156251	-83.50910949707033	1296.417602539063	-592.9171142578126	175.3027038574219	1366.4814453125	-632.6434326171876	183.520751953125	1319.287109375	-591.2042236328126	255.3939971923829	1376.85986328125	-620.5992431640626	-278.7854309082032	1011.790466308594	-908.6859130859377	-252.5768280029297	1007.757019042969	-699.6539306640626	-429.8579101562501	1077.794189453125	-782.9896240234377	-436.3849487304689	1044.734741210938	-809.9606933593752	-429.1721801757814	1046.309448242188	-752.5352172851564	-334.5353698730469	751.9822998046876	-982.7648925781252	-292.8983459472657	677.7731323242189	-989.4584960937502	-246.1662292480469	685.9451904296876	-978.6895751953127	-313.6196594238282	621.8379516601564	-975.267517089844	-312.8058776855469	524.9498291015626	-965.7531738281252	-270.8989562988282	381.7410583496094	-942.768737792969	-336.0927734375001	345.0316467285157	-990.9129028320315	-298.1976318359376	337.4300842285157	-971.5841064453127	-302.1496276855469	256.7326660156251	-939.967224121094	-383.8482971191407	136.26953125	-956.8750610351565	-361.4404907226563	138.5846862792969	-883.0085449218752	-445.0350952148439	102.1792755126953	-904.079284667969	-246.2855529785157	53.97337722778322	-909.9951171875002	-241.4196777343751	56.01145553588869	-947.7789306640627	-291.9909362792969	43.59389114379884	-997.2128906250002	-249.1446838378907	752.3087158203126	-640.2208862304689	-275.6895446777344	675.7109375000001	-640.5160522460939	-319.2952880859376	514.8280639648439	-670.7027587890626	-292.3468933105469	333.6086425781251	-737.0101318359376	-345.2738647460938	254.3586425781251	-679.2231445312501	-314.6210327148438	252.1608276367188	-714.9510498046876	-328.7378845214844	211.9580535888672	-756.3209838867189	-390.3097534179689	128.9388885498047	-711.5952758789064	-375.7535705566407	134.2950897216797	-786.470153808594	-457.1286010742189	104.7884902954102	-760.2689819335939	-257.8500976562501	55.91098785400392	-787.5028076171877	-249.2145996093751	54.53624725341798	-744.6766357421876	-292.2694091796876	49.70972824096681	-686.8195190429689	-224.9526062011719	755.3948974609376	-666.8653564453126	-288.1937255859376	804.672058105469	-630.0623779296876	
177	0.88	-257.5718994140626	1719.064331054688	-709.6329956054689	-385.7449951171876	1684.39697265625	-851.865173339844	-388.6592712402345	1678.324829101563	-711.9780883789064	-410.5465698242189	1502.500732421875	-773.282897949219	-434.3859863281251	1210.586303710938	-776.0334472656252	-277.3037719726563	1457.805786132813	-781.3712158203127	-333.4616088867188	1503.156860351563	-922.3213500976565	-205.9720001220704	1446.183227539063	-976.3989868164065	-180.4093627929688	1444.557861328125	-934.351745605469	-140.1860046386719	1430.45849609375	-977.4870605468752	-76.48723602294923	1380.064086914063	-1001.913696289063	-86.77016448974611	1328.023803710938	-973.986267089844	163.4240875244141	1385.825927734375	-915.025329589844	165.9546813964844	1342.91552734375	-964.9859619140627	238.2695007324219	1400.247802734375	-919.4890747070315	-319.4443359375001	1487.359619140625	-643.2413940429689	-207.8683471679688	1378.047119140625	-554.8703002929689	-174.6237335205078	1407.89501953125	-579.0642089843751	-142.6132354736328	1363.291625976563	-556.2976684570314	-66.40756988525392	1345.087890625	-565.9360351562501	-82.87180328369142	1297.82177734375	-592.7601928710939	175.7262115478516	1370.556762695313	-633.3339843750001	184.1665496826172	1322.072998046875	-591.3128662109376	255.7989959716797	1379.970336914063	-620.4096069335939	-278.7264709472657	1011.83935546875	-908.3948974609377	-252.6337890625001	1007.64794921875	-699.3710327148439	-429.862762451172	1077.792846679688	-782.648864746094	-436.2800598144532	1044.68798828125	-809.5672607421877	-429.1705322265626	1046.244140625	-752.2235107421876	-334.3760070800782	752.0023803710939	-982.5178222656252	-292.7541503906251	677.8474121093751	-989.348571777344	-245.9050292968751	686.0380859375001	-978.5041503906252	-313.4243774414063	621.9069824218751	-975.147399902344	-312.6820678710938	525.0861206054689	-965.7198486328127	-270.5047912597657	381.8991699218751	-942.6572265625002	-335.8862609863282	345.0916137695313	-990.8706665039065	-298.0173645019532	337.5415954589844	-971.5366210937502	-302.8854675292969	256.5010070800782	-939.590759277344	-383.7506408691407	136.310791015625	-956.8997192382815	-361.3820495605469	138.666976928711	-883.0347290039065	-444.888397216797	102.1952819824219	-904.1753540039065	-246.308090209961	53.9275588989258	-910.0045166015627	-241.4104919433594	55.92304992675783	-947.8938598632815	-292.0237426757813	43.63767242431641	-997.2068481445315	-248.9141845703126	752.2658691406251	-640.1233520507814	-275.4217224121094	675.6737060546876	-640.3318481445314	-319.0410156250001	514.8038330078126	-670.6185302734376	-292.2475585937501	333.5525512695313	-736.9415283203126	-345.0967712402344	254.3858489990235	-679.1693725585939	-314.5590209960938	252.115707397461	-714.9199829101564	-328.7148132324219	211.9433288574219	-756.2718505859376	-390.3174133300782	128.960433959961	-711.6246337890626	-375.7338867187501	134.2818756103516	-786.4427490234377	-457.148895263672	104.7971649169922	-760.2666015625001	-257.8777770996094	55.90328979492189	-787.4592895507815	-249.2174530029297	54.59424591064455	-744.7089233398439	-292.2441711425782	49.73717880249025	-686.8547973632814	-224.7472534179688	755.3986206054689	-666.6440429687501	-288.0934448242188	804.669372558594	-629.7777099609376	
178	0.885	-257.5785522460938	1719.068969726563	-709.2813110351564	-385.7247924804689	1684.355102539063	-851.528747558594	-388.7057189941407	1678.332397460938	-711.6315307617189	-410.6532592773439	1502.520385742188	-772.8062744140627	-434.4103088378907	1210.596801757813	-775.655944824219	-277.2083129882813	1457.856811523438	-780.9738769531252	-333.4427185058594	1503.253540039063	-921.6494140625002	-205.9195251464844	1446.88427734375	-975.7488403320315	-180.4723663330078	1445.429565429688	-933.7139892578127	-140.0511169433594	1431.3662109375	-976.682800292969	-76.26156616210939	1381.4267578125	-1001.153442382813	-86.2261428833008	1329.388305664063	-973.3458251953127	163.6539306640625	1388.160522460938	-914.2581787109377	166.5503082275391	1344.934814453125	-964.0539550781252	238.7802276611329	1402.8603515625	-918.5478515625002	-319.5089111328126	1487.546264648438	-642.9490966796876	-207.5286560058594	1378.893310546875	-554.6503295898439	-174.383041381836	1408.920532226563	-578.6901245117189	-142.236068725586	1364.4560546875	-556.0932617187501	-65.92386627197267	1346.648559570313	-565.7418212890626	-82.20562744140626	1299.14404296875	-592.7678222656251	176.1282806396485	1374.000122070313	-633.1499633789064	184.8621978759766	1324.609497070313	-591.2888183593751	256.1014099121094	1382.975463867188	-620.2120971679689	-278.7456665039063	1011.924743652344	-908.030944824219	-252.1437225341797	1007.787353515625	-698.9209594726564	-429.8609619140626	1077.726684570313	-782.2651977539065	-436.1813354492189	1044.589233398438	-809.2908935546877	-429.3204040527345	1046.2529296875	-751.8150024414064	-334.1845397949219	752.0195922851564	-982.2994384765627	-292.5807189941407	677.9653930664064	-989.121765136719	-245.6693725585938	686.1093139648439	-978.3748779296877	-313.1115722656251	621.9275512695314	-974.9746704101565	-312.3768005371094	525.1058349609376	-965.6876220703127	-270.3480834960938	381.8790283203126	-942.6300048828127	-335.7504272460938	345.1810913085938	-990.8536376953127	-297.8102722167969	337.6029052734376	-971.4866943359377	-302.8101806640626	256.5226745605469	-939.6358642578127	-383.7699890136719	136.4703826904297	-956.9023437500002	-361.2441406250001	138.7305603027344	-883.0925903320315	-444.9522705078126	102.316879272461	-904.164733886719	-246.3285675048829	53.9399871826172	-910.0916137695315	-241.3524017333985	55.93309402465822	-947.879821777344	-291.9117431640626	43.73229217529298	-997.553649902344	-248.7845916748047	752.3095092773439	-639.7255859375001	-275.2639160156251	675.6326293945314	-640.0897827148439	-318.7472534179688	514.6196899414064	-670.4066772460939	-292.0668945312501	333.5075683593751	-736.8157958984376	-344.9938049316407	254.3310546875001	-679.0707397460939	-314.3663330078126	252.0215148925782	-714.8477172851564	-328.6218566894532	211.9400634765626	-756.2025756835939	-390.2251586914064	128.9388122558594	-711.5402832031251	-375.6806945800782	134.334228515625	-786.404724121094	-457.2088623046876	104.7263565063477	-760.2066040039064	-257.8486022949219	55.88115692138673	-787.4617919921877	-249.2220001220704	54.56853103637697	-744.8157348632814	-292.2943115234376	49.73232650756837	-686.8046264648439	-224.5591430664063	755.4171752929689	-666.3803100585939	-287.9190979003907	804.642028808594	-629.5504150390626	
